{
  "accessors": [
    {
      "bufferView": 2,
      "componentType": 5126,
      "count": 422,
      "max": [
        3.5,
        4.539961814880371,
        19.239734649658203
      ],
      "min": [
        -3.5000009536743164,
        -2.460041046142578,
        12.239733695983887
      ],
      "type": "VEC3"
    },
    {
      "bufferView": 2,
      "byteOffset": 5064,
      "componentType": 5126,
      "count": 422,
      "max": [
        1.0,
        1.0,
        1.0
      ],
      "min": [
        -1.0,
        -1.0,
        -1.0
      ],
      "type": "VEC3"
    },
    {
      "bufferView": 3,
      "componentType": 5126,
      "count": 422,
      "max": [
        0.9999740123748779,
        0.9999999403953552,
        0.43379032611846924,
        1.0
      ],
      "min": [
        -0.9999773502349854,
        -0.9999999403953552,
        -0.4115520715713501,
        1.0
      ],
      "type": "VEC4"
    },
    {
      "bufferView": 1,
      "componentType": 5126,
      "count": 422,
      "max": [
        0.7498890161514282,
        0.391882985830307
      ],
      "min": [
        0.5725560188293457,
        0.014038999564945698
      ],
      "type": "VEC2"
    },
    {
      "bufferView": 0,
      "componentType": 5125,
      "count": 2280,
      "type": "SCALAR"
    },
    {
      "bufferView": 2,
      "byteOffset": 10128,
      "componentType": 5126,
      "count": 18085,
      "max": [
        51.574981689453125,
        -18.875064849853516,
        7.400515079498291
      ],
      "min": [
        -19.235017776489258,
        -125.92980194091797,
        -0.38314101099967957
      ],
      "type": "VEC3"
    },
    {
      "bufferView": 2,
      "byteOffset": 227148,
      "componentType": 5126,
      "count": 18085,
      "max": [
        0.9999996423721313,
        0.9999967813491821,
        1.0
      ],
      "min": [
        -0.9999996423721313,
        -0.9999967813491821,
        -1.0
      ],
      "type": "VEC3"
    },
    {
      "bufferView": 3,
      "byteOffset": 6752,
      "componentType": 5126,
      "count": 18085,
      "max": [
        0.9999969005584717,
        0.9999969005584717,
        0.9999999403953552,
        1.0
      ],
      "min": [
        -0.9999969601631165,
        -0.9999968409538269,
        -0.9999999403953552,
        1.0
      ],
      "type": "VEC4"
    },
    {
      "bufferView": 1,
      "byteOffset": 3376,
      "componentType": 5126,
      "count": 18085,
      "max": [
        0.5492600202560425,
        0.3714410066604614
      ],
      "min": [
        0.5183050036430359,
        0.26402199268341064
      ],
      "type": "VEC2"
    },
    {
      "bufferView": 0,
      "byteOffset": 9120,
      "componentType": 5125,
      "count": 36180,
      "type": "SCALAR"
    },
    {
      "bufferView": 2,
      "byteOffset": 444168,
      "componentType": 5126,
      "count": 8699,
      "max": [
        10.685938835144043,
        19.781953811645508,
        21.530990600585938
      ],
      "min": [
        -10.685938835144043,
        -21.049230575561523,
        -0.09033600240945816
      ],
      "type": "VEC3"
    },
    {
      "bufferView": 2,
      "byteOffset": 548556,
      "componentType": 5126,
      "count": 8699,
      "max": [
        1.0,
        1.0,
        1.0
      ],
      "min": [
        -1.0,
        -1.0,
        -1.0
      ],
      "type": "VEC3"
    },
    {
      "bufferView": 3,
      "byteOffset": 296112,
      "componentType": 5126,
      "count": 8699,
      "max": [
        1.0,
        1.0,
        1.0,
        1.0
      ],
      "min": [
        -1.0,
        -1.0,
        -1.0,
        -1.0
      ],
      "type": "VEC4"
    },
    {
      "bufferView": 1,
      "byteOffset": 148056,
      "componentType": 5126,
      "count": 8699,
      "max": [
        0.9452319741249084,
        0.9876539707183838
      ],
      "min": [
        0.010793999768793583,
        0.0272659994661808
      ],
      "type": "VEC2"
    },
    {
      "bufferView": 0,
      "byteOffset": 153840,
      "componentType": 5125,
      "count": 44772,
      "type": "SCALAR"
    }
  ],
  "asset": {
    "extras": {
      "author": "Jonás (https://sketchfab.com/jonasaguilar)",
      "license": "CC-BY-4.0 (http://creativecommons.org/licenses/by/4.0/)",
      "source": "https://sketchfab.com/3d-models/toy-car-33a57e0e208a469e8034ab0ea978488b",
      "title": "Toy Car"
    },
    "generator": "Sketchfab-10.53.0",
    "version": "2.0"
  },
  "bufferViews": [
    {
      "buffer": 0,
      "byteLength": 332928,
      "name": "floatBufferViews",
      "target": 34963
    },
    {
      "buffer": 0,
      "byteLength": 217648,
      "byteOffset": 332928,
      "byteStride": 8,
      "name": "floatBufferViews",
      "target": 34962
    },
    {
      "buffer": 0,
      "byteLength": 652944,
      "byteOffset": 550576,
      "byteStride": 12,
      "name": "floatBufferViews",
      "target": 34962
    },
    {
      "buffer": 0,
      "byteLength": 435296,
      "byteOffset": 1203520,
      "byteStride": 16,
      "name": "floatBufferViews",
      "target": 34962
    }
  ],
  "buffers": [
    {
      "byteLength": 1638816,
      "uri": "scene.bin"
    }
  ],
  "images": [
    {
      "uri": "textures/initialShadingGroup_baseColor.jpeg"
    },
    {
      "uri": "textures/initialShadingGroup_metallicRoughness.png"
    },
    {
      "uri": "textures/initialShadingGroup_normal.png"
    }
  ],
  "materials": [
    {
      "doubleSided": true,
      "name": "initialShadingGroup",
      "normalTexture": {
        "index": 2
      },
      "occlusionTexture": {
        "index": 1
      },
      "pbrMetallicRoughness": {
        "baseColorTexture": {
          "index": 0
        },
        "metallicRoughnessTexture": {
          "index": 1
        }
      }
    }
  ],
  "meshes": [
    {
      "name": "Object_0",
      "primitives": [
        {
          "attributes": {
            "NORMAL": 1,
            "POSITION": 0,
            "TANGENT": 2,
            "TEXCOORD_0": 3
          },
          "indices": 4,
          "material": 0,
          "mode": 4
        }
      ]
    },
    {
      "name": "Object_1",
      "primitives": [
        {
          "attributes": {
            "NORMAL": 6,
            "POSITION": 5,
            "TANGENT": 7,
            "TEXCOORD_0": 8
          },
          "indices": 9,
          "material": 0,
          "mode": 4
        }
      ]
    },
    {
      "name": "Object_2",
      "primitives": [
        {
          "attributes": {
            "NORMAL": 11,
            "POSITION": 10,
            "TANGENT": 12,
            "TEXCOORD_0": 13
          },
          "indices": 14,
          "material": 0,
          "mode": 4
        }
      ]
    }
  ],
  "nodes": [
    {
      "children": [
        1
      ],
      "matrix": [
        1.0,
        0.0,
        0.0,
        0.0,
        0.0,
        6.123234262925839e-17,
        -1.0,
        0.0,
        0.0,
        1.0,
        6.123234262925839e-17,
        0.0,
        0.0,
        -8.881784197001252e-15,
        -1.9721522630525295e-30,
        1.0
      ],
      "name": "Sketchfab_model"
    },
    {
      "children": [
        2,
        3,
        4
      ],
      "name": "coche_substance.obj.cleaner.materialmerger.gles"
    },
    {
      "mesh": 0,
      "name": "Object_2"
    },
    {
      "mesh": 1,
      "name": "Object_3"
    },
    {
      "mesh": 2,
      "name": "Object_4"
    }
  ],
  "samplers": [
    {
      "magFilter": 9729,
      "minFilter": 9987,
      "wrapS": 10497,
      "wrapT": 10497
    }
  ],
  "scene": 0,
  "scenes": [
    {
      "name": "Sketchfab_Scene",
      "nodes": [
        0
      ]
    }
  ],
  "textures": [
    {
      "sampler": 0,
      "source": 0
    },
    {
      "sampler": 0,
      "source": 1
    },
    {
      "sampler": 0,
      "source": 2
    }
  ]
}
